<?xml version="1.0" encoding="utf-8"?>
<!-- Generator: Adobe Illustrator 24.2.1, SVG Export Plug-In . SVG Version: 6.00 Build 0)  -->
<svg version="1.1" id="icon-external-link" xmlns="http://www.w3.org/2000/svg" xmlns:xlink="http://www.w3.org/1999/xlink" x="0px"
	 y="0px" viewBox="0 0 612 792" style="enable-background:new 0 0 612 792;" xml:space="preserve">
<style type="text/css">
	.st0{fill:#CB9700;}
</style>
<path class="st0" d="M612,149.5v136c0,22.8-27.6,34-43.5,18l-37.9-37.9L271.8,524.3c-10,10-26.1,10-36.1,0l-24-24
	c-10-10-10-26.1,0-36.1l258.7-258.7l-37.9-37.9c-16-16-4.7-43.5,18-43.5h136C600.6,124,612,135.4,612,149.5z M432.5,411.7l-17,17
	c-4.8,4.8-7.5,11.3-7.5,18V600H68V260h280.5c6.8,0,13.2-2.7,18-7.5l17-17c16.1-16.1,4.7-43.5-18-43.5H51c-28.2,0-51,22.8-51,51v374
	c0,28.2,22.8,51,51,51h374c28.2,0,51-22.8,51-51V429.7C476,407,448.5,395.7,432.5,411.7z"/>
</svg>
