<?xml version="1.0" encoding="utf-8"?>
<!-- Generator: Adobe Illustrator 24.0.3, SVG Export Plug-In . SVG Version: 6.00 Build 0)  -->
<svg version="1.1" id="Layer_1" xmlns="http://www.w3.org/2000/svg" xmlns:xlink="http://www.w3.org/1999/xlink" x="0px" y="0px"
	 viewBox="0 0 500 123.6" style="enable-background:new 0 0 500 123.6;" xml:space="preserve">
<style type="text/css">
	.st0{fill:#FFFFFF;}
	.st1{fill:#CB9700;}
</style>
<g>
	<path class="st0" d="M110.5,20.8v81.9h15.5v20.8H69.9v-20.8h15.2V72.4H41v30.4h15.2v20.8H0v-20.8h15.5V20.8H0V0h56.1v20.8H41v28.6
		h44.1V20.8H69.9V0h56.1v20.8H110.5z"/>
	<path class="st0" d="M222.5,38.1V21.5H187v27.9h43.3v22.9H187V102h35.5V85.4h22.2v38.1H146v-20.8h15.5V20.8H146V0h98.7v38.1H222.5z
		"/>
	<path class="st0" d="M384.9,102.7v20.8h-33l-23.1-47.7h-19.4v26.8h18v20.8h-59v-20.8h15.5V20.8h-15.5V0h79.4
		c16.8,0,24.7,7.9,24.7,24.7v25.1c0,14.1-5.6,21.9-17.3,24.2l13.8,28.8H384.9z"/>
	<path class="st0" d="M477.8,38.1V21.5h-35.5v27.9h43.3v22.9h-43.3V102h35.5V85.4H500v38.1h-98.7v-20.8h15.5V20.8h-15.5V0H500v38.1
		H477.8z"/>
	<path class="st1" d="M341.6,41.1v-2.5h-2v-2.2h-1.5c0-6.7-3.5-12.3-8.3-13.9v-0.9h0.7v-1.2h-0.7v-2.1c0-0.7-0.5-1.2-1.2-1.2h-0.1
		l0.3-0.7l-0.3-0.4l0-0.5l0,0c-0.2-0.3-0.5-0.4-0.8-0.5l0,0c0-0.1,0.1-0.6,0.1-0.7c0-0.1,0-0.1,0-0.1c0,0,0,0,0,0c0,0,0,0,0-0.1
		c0-0.1,0-0.3,0-0.5l0.1-1v0c0-1-0.3-1.3-0.4-1.4c0,0,0,0,0-0.1c-0.1-0.1-0.1-0.1-0.2-0.1c0,0-0.1-0.1-0.2-0.1c0,0,0-0.1,0-0.1
		c0-0.1,0-0.3,0-0.3c0,0,0,0,0,0c0,0,0,0,0,0c0-0.1-0.1-0.2-0.2-0.2l0,0l0,0c0,0-0.1,0-0.1,0l0,0l0,0l0,0c-0.1,0-0.2,0.1-0.2,0.2
		c0,0.1-0.1,0.3-0.1,0.4c0,0,0,0,0,0c0,0,0,0,0,0c0,0,0,0.1,0,0.1c-0.4,0.1-0.5,0.4-0.5,0.8c0,0,0,0-0.1,0c0,0,0,0,0,0
		c-0.1,0-0.2,0-0.3,0c0,0-0.2,0.1-0.2,0.2c0,0,0,0.1,0,0.1c0,0,0.1,0.1,0.2,0.1c0,0,0,0,0,0l0,0c0,0,0.1,0,0.1,0
		c0,0.5,0.1,1.2,0.1,1.2c0,0,0.2,1.5,0.3,1.9c-0.4,0.1-0.7,0.3-0.7,0.5l0,0.5l-0.3,0.4l0.3,0.7h-0.1c-0.7,0-1.2,0.5-1.2,1.2v2.1
		h-0.7v1.2h0.7v0.9c-4.8,1.6-8.3,7.2-8.3,13.9h-1.5v2.2h-2v2.5h2v9.3h-2V58h2h25.4h2v-7.6h-2v-9.3H341.6z M327,10.1L327,10.1
		L327,10.1L327,10.1z"/>
</g>
</svg>
